<svg xmlns="http://www.w3.org/2000/svg" width="735" height="658" viewBox="0 0 735 658" version="1.1"><path d="M 338 1 C 336.625 1.440, 333.720 1.845, 331.544 1.900 C 325.031 2.064, 295.080 7.020, 288.500 9.022 C 286.850 9.524, 282.800 10.650, 279.500 11.523 C 266.977 14.839, 262.437 16.134, 260.500 16.944 C 259.400 17.404, 254.450 19.236, 249.500 21.016 C 201.031 38.443, 152.534 71.999, 116.734 112.878 C 102.940 128.630, 103.230 128.389, 95 130.900 C 90.875 132.159, 86.600 133.558, 85.500 134.010 C 84.400 134.461, 81.025 135.597, 78 136.533 C 74.975 137.470, 71.022 138.858, 69.216 139.618 C 67.410 140.378, 65.099 141, 64.080 141 C 63.062 141, 60.940 141.672, 59.364 142.494 C 57.789 143.315, 55.514 143.990, 54.309 143.994 C 53.104 143.997, 51.840 144.450, 51.500 145 C 51.160 145.550, 50.024 146, 48.975 146 C 47.926 146, 45.590 146.635, 43.784 147.410 C 41.978 148.186, 36.450 150.033, 31.500 151.515 C 26.550 152.997, 21.022 154.838, 19.216 155.605 C 17.410 156.372, 15.266 157, 14.453 157 C 13.639 157, 12.191 157.391, 11.236 157.868 C 10.281 158.346, 7.480 159.359, 5.011 160.118 C 2.227 160.975, 0.394 162.170, 0.185 163.263 C -0 164.233, 3.072 171.658, 7.012 179.763 C 10.951 187.868, 14.653 195.497, 15.238 196.716 C 15.823 197.935, 16.753 198.653, 17.305 198.311 C 17.888 197.951, 17.997 198.196, 17.564 198.896 C 17.155 199.558, 17.601 201.765, 18.556 203.800 C 21.604 210.298, 34.017 236.177, 38.710 245.819 C 42.693 254.003, 43.161 255.646, 42.553 259.319 C 42.173 261.618, 41.232 267.325, 40.463 272 C 33.962 311.503, 33.969 346.254, 40.484 386.500 C 42.321 397.845, 43.607 403.946, 44.819 407.058 C 45.342 408.401, 46.542 412.875, 47.486 417 C 50.603 430.624, 59.432 454.014, 68.247 472 C 77.958 491.816, 96.092 521.245, 100.433 524.235 C 101.715 525.117, 131.163 525.259, 133.418 524.393 C 134.825 523.853, 135 519.265, 135 482.949 L 135 442.112 137.250 439.693 C 138.487 438.362, 149.625 429.225, 162 419.387 C 174.375 409.549, 185.400 400.756, 186.500 399.846 C 198.017 390.319, 212.556 379.223, 212.975 379.641 C 213.264 379.929, 213.725 401.391, 214 427.333 L 214.500 474.500 230.867 474.775 C 242.088 474.964, 247.669 474.690, 248.617 473.903 C 249.768 472.948, 250 462.128, 250 409.500 C 250 357.894, 250.246 346.040, 251.338 345.134 C 252.256 344.373, 264.896 343.942, 291.588 343.762 L 330.500 343.500 330.764 311.775 L 331.028 280.051 346.764 279.775 L 362.500 279.500 362.766 252.750 L 363.033 226 354.016 226 L 345 226 345 218.500 C 345 212.071, 345.250 210.982, 346.750 210.877 C 347.712 210.809, 353.675 210.647, 360 210.515 C 366.325 210.383, 372.041 210.214, 372.702 210.138 C 373.459 210.051, 374.015 207.685, 374.202 203.750 L 374.500 197.500 390 197.500 L 405.500 197.500 405.799 204.410 C 406.010 209.263, 405.712 211.566, 404.799 212.145 C 404.085 212.598, 400.439 212.976, 396.698 212.985 L 389.895 213 390.198 218.250 L 390.500 223.500 398 224 L 405.500 224.500 405.500 231.500 L 405.500 238.500 392.500 239 L 379.500 239.500 379.500 259.500 L 379.500 279.500 397.750 279.773 L 416 280.045 416 341.066 L 416 402.088 408.750 401.794 L 401.500 401.500 401 348.500 L 400.500 295.500 374.623 295.233 C 356.370 295.044, 348.342 295.301, 347.373 296.105 C 346.263 297.026, 346 303.164, 346 328.122 C 346 345.105, 345.887 359.094, 345.750 359.210 C 345.613 359.325, 327.500 359.663, 305.500 359.960 L 265.500 360.500 265 425 L 264.500 489.500 231.500 489.500 L 198.500 489.500 198.238 451.538 C 198.094 430.659, 197.588 413.188, 197.114 412.714 C 195.852 411.452, 151.433 447.249, 150.655 450.154 C 150.310 451.444, 150.021 472.188, 150.014 496.250 L 150 540 133.250 540.015 C 124.037 540.024, 115.864 540.433, 115.086 540.926 C 113.459 541.956, 114.694 543.612, 126.391 556.076 C 151.327 582.651, 187.322 608.965, 220.500 624.876 C 230.102 629.481, 233.607 631.025, 243.500 635.012 C 261.885 642.422, 287 649.541, 305.500 652.586 C 310.450 653.401, 317.200 654.525, 320.500 655.084 C 323.800 655.642, 331.675 656.252, 338 656.439 C 344.325 656.627, 347.700 656.581, 345.500 656.337 C 316.899 653.176, 304.304 651.504, 298.500 650.099 C 269.466 643.070, 247.252 635.904, 231 628.326 C 191.229 609.779, 161.748 589.443, 132.600 560.447 C 123.100 550.997, 116.791 543.701, 116.918 542.314 C 116.959 541.866, 124.757 541.275, 134.246 541 L 151.500 540.500 152.025 494.500 C 152.314 469.200, 152.652 448.427, 152.775 448.339 C 154.161 447.343, 171.629 433.403, 172 432.996 C 172.275 432.695, 174.525 430.897, 177 429.001 C 179.475 427.104, 184.621 422.954, 188.436 419.777 C 192.250 416.599, 195.738 414, 196.186 414 C 196.633 414, 197 431.045, 197 451.878 C 197 481.011, 197.289 489.972, 198.250 490.696 C 198.976 491.243, 212.954 491.604, 231.610 491.557 C 257.060 491.493, 264.059 491.196, 265.353 490.122 C 266.826 488.899, 267.010 482.573, 267.243 425.134 L 267.500 361.500 306.412 361.238 C 333.104 361.058, 345.744 360.627, 346.662 359.866 C 347.727 358.981, 348 352.359, 348 327.361 L 348 295.966 373.750 296.233 L 399.500 296.500 400 349.500 L 400.500 402.500 408.500 402.500 L 416.500 402.500 416.758 340.750 L 417.015 279 398.508 279 L 380 279 380 259.500 L 380 240 392.893 240 C 403.727 240, 405.883 239.747, 406.393 238.418 C 407.255 236.171, 407.118 225.733, 406.207 224.301 C 405.768 223.610, 402.490 222.974, 398.472 222.801 L 391.500 222.500 391.193 218.250 L 390.885 214 397.743 214 C 401.743 214, 405.100 213.500, 405.800 212.800 C 407.526 211.074, 407.379 198.559, 405.615 197.096 C 404.671 196.312, 399.346 196.035, 388.865 196.223 L 373.500 196.500 373.202 202.750 L 372.905 209 359.702 209.015 C 352.441 209.024, 345.917 209.400, 345.205 209.852 C 344.280 210.439, 343.994 212.932, 344.205 218.587 L 344.500 226.500 353.250 226.789 L 362 227.078 362 253.014 L 362 278.949 346.250 279.225 L 330.500 279.500 330.235 310.450 C 330.037 333.682, 329.662 341.596, 328.735 342.185 C 328.056 342.616, 310.078 342.976, 288.785 342.985 C 251.541 342.999, 250.031 343.073, 249.035 344.934 C 248.353 346.209, 248 368.374, 248 409.934 L 248 473 231.510 473 L 215.020 473 214.760 425.764 C 214.534 384.698, 214.304 378.492, 213 378.260 C 211.814 378.049, 185.169 398.737, 158 420.965 C 156.075 422.540, 149.892 427.479, 144.261 431.941 L 134.022 440.054 133.761 481.777 L 133.500 523.500 117.070 523.500 L 100.640 523.500 95.298 516 C 92.360 511.875, 89.661 507.825, 89.299 507 C 88.938 506.175, 86.390 501.900, 83.637 497.500 C 74.910 483.550, 65.544 464.328, 58.300 445.500 C 57.453 443.300, 56.391 440.600, 55.940 439.500 C 54.252 435.388, 49.846 421.357, 49.031 417.500 C 48.567 415.300, 47.476 411.025, 46.607 408 C 45.187 403.057, 42.863 391.507, 39.868 374.500 C 38.682 367.770, 36.631 338.963, 36.628 329 C 36.624 317.642, 38.900 287.393, 39.970 284.579 C 40.536 283.089, 41 279.984, 41 277.678 C 41 275.373, 41.455 271.915, 42.012 269.993 C 42.568 268.072, 43.486 263.630, 44.051 260.122 C 44.933 254.654, 44.845 253.486, 43.437 251.930 C 42.534 250.932, 42.030 249.527, 42.318 248.808 C 42.659 247.957, 42.870 248.112, 42.921 249.250 C 43.017 251.380, 45.585 251.502, 50.730 249.622 C 52.803 248.864, 57.200 247.451, 60.500 246.482 C 63.800 245.513, 67.400 244.389, 68.500 243.985 C 69.600 243.580, 73.200 242.485, 76.500 241.550 C 83.971 239.435, 98.188 235.179, 103.500 233.469 C 105.700 232.760, 110.200 231.431, 113.500 230.514 C 116.800 229.597, 120.400 228.465, 121.500 227.999 C 122.600 227.532, 124.625 226.937, 126 226.677 C 127.375 226.416, 129.850 225.709, 131.500 225.106 C 133.150 224.502, 139.077 222.623, 144.671 220.931 C 150.447 219.183, 155.088 217.212, 155.411 216.370 C 155.724 215.555, 155.310 213.283, 154.490 211.322 C 153.671 209.361, 152.993 207.023, 152.985 206.128 C 152.937 201.043, 148.099 200.512, 136.653 204.336 C 132.719 205.650, 126.800 207.488, 123.500 208.421 C 120.200 209.354, 116.719 210.541, 115.764 211.059 C 114.809 211.576, 113.009 212.003, 111.764 212.006 C 110.519 212.010, 108.211 212.685, 106.636 213.506 C 105.060 214.328, 102.938 215, 101.920 215 C 100.901 215, 98.590 215.634, 96.784 216.409 C 94.978 217.184, 90.125 218.787, 86 219.970 C 75.342 223.029, 73.186 223.657, 67 225.500 C 56.542 228.617, 53.725 229.125, 52.683 228.083 C 52.019 227.419, 52.072 226.619, 52.842 225.690 C 53.876 224.444, 57.815 214.640, 59.950 208 C 62.085 201.356, 75.313 174.170, 80.247 166.283 C 82.437 162.784, 83.998 159.129, 83.819 157.921 C 83.531 155.984, 84.858 155.341, 97.500 151.292 C 105.200 148.825, 113.075 146.221, 115 145.505 C 124.348 142.026, 135.956 138.769, 137.245 139.264 C 138.541 139.761, 140.080 142.549, 143.173 150 C 143.744 151.375, 144.792 153.850, 145.504 155.500 C 146.215 157.150, 148.692 163.112, 151.008 168.750 C 154.882 178.178, 155.436 179, 157.919 179 C 159.403 179, 161.491 178.339, 162.559 177.532 C 163.626 176.724, 165.203 176.049, 166.061 176.032 C 166.920 176.014, 168.595 175.095, 169.782 173.988 C 171.575 172.318, 171.772 171.530, 170.943 169.350 C 170.393 167.905, 170.069 166.600, 170.222 166.450 C 170.692 165.988, 181.141 163.931, 188 162.950 C 191.575 162.438, 195.020 161.820, 195.656 161.577 C 197.148 161.006, 199.009 163.282, 202.136 169.500 C 203.519 172.250, 205.919 176.750, 207.470 179.500 C 209.020 182.250, 211.715 187.200, 213.459 190.500 C 218.290 199.643, 219.319 201, 221.420 201 C 223.760 201, 236.114 197.024, 237.450 195.841 C 237.973 195.379, 239.420 195, 240.666 195 C 241.912 195, 244.410 194.364, 246.216 193.587 C 248.022 192.810, 257.375 189.648, 267 186.560 C 286.277 180.376, 289 179.247, 289 177.433 C 289 176.348, 278.425 158.280, 277.041 157 C 276.298 156.314, 274.132 152.823, 273.317 151 C 272.948 150.175, 271.601 147.821, 270.323 145.770 C 267.431 141.126, 267.419 139.784, 270.258 138.435 C 271.491 137.849, 275.781 135.658, 279.792 133.567 C 286.723 129.954, 287.177 129.850, 288.971 131.474 C 290.009 132.413, 291.585 134.603, 292.474 136.341 C 293.362 138.078, 294.857 140.679, 295.795 142.120 C 296.733 143.561, 299.202 147.681, 301.283 151.275 C 305.768 159.023, 307.237 160.407, 310.244 159.720 C 313.150 159.055, 327.770 155.393, 335.500 153.393 C 338.800 152.540, 343.075 151.448, 345 150.968 C 346.925 150.488, 350.975 149.448, 354 148.657 C 357.025 147.866, 361.525 146.691, 364 146.044 C 366.475 145.398, 370.300 144.497, 372.500 144.042 C 376.378 143.240, 387.193 140.577, 399.500 137.393 C 402.800 136.540, 407.075 135.463, 409 135 C 418.650 132.681, 425.948 130.765, 430.134 129.453 C 432.683 128.654, 435.447 128, 436.277 128 C 440.168 128, 438.869 124.071, 429.498 107.500 C 425.833 101.019, 424.049 97.815, 420.031 90.500 C 418.218 87.200, 416.404 84.050, 416 83.500 C 415.246 82.475, 410.252 73.562, 406.523 66.587 C 403.775 61.448, 401.651 60.112, 398.930 61.812 C 397.788 62.525, 395.125 64.010, 393.012 65.111 C 386.728 68.386, 386.763 68.571, 397.005 86.500 C 404.150 99.007, 412 113.815, 412 114.787 C 412 115.404, 410.313 116.197, 408.250 116.550 C 406.188 116.902, 403.150 117.568, 401.500 118.030 C 399.850 118.492, 395.575 119.610, 392 120.515 C 388.425 121.419, 383.925 122.563, 382 123.056 C 380.075 123.549, 375.575 124.658, 372 125.519 C 368.425 126.380, 363.250 127.720, 360.500 128.495 C 357.750 129.270, 354.375 130.117, 353 130.378 C 349.745 130.994, 335.019 134.641, 328 136.570 C 319.267 138.969, 314.825 138.903, 313.520 136.357 C 312.916 135.178, 311.924 133.603, 311.316 132.857 C 310.707 132.110, 308.968 129.250, 307.451 126.500 C 305.934 123.750, 302.962 118.881, 300.846 115.679 C 298.731 112.478, 297 109.644, 297 109.381 C 297 109.118, 295.200 106.193, 293 102.881 C 290.800 99.569, 289 96.654, 289 96.405 C 289 96.155, 287.200 93.101, 285 89.617 C 282.800 86.134, 281 82.791, 281 82.189 C 281 81.116, 283.479 79.826, 291.500 76.725 C 296.327 74.859, 315.699 67.144, 318.500 65.972 C 319.600 65.512, 322.300 64.396, 324.500 63.494 C 326.700 62.591, 329.850 61.267, 331.500 60.552 C 333.150 59.837, 336.525 58.459, 339 57.490 C 341.475 56.521, 344.850 55.182, 346.500 54.514 C 348.150 53.846, 350.962 52.728, 352.750 52.029 C 354.929 51.176, 356 50.090, 356 48.731 C 356 45.302, 351.870 35.164, 350.214 34.529 C 348.868 34.012, 343.993 35.781, 325 43.680 C 323.075 44.480, 320.375 45.602, 319 46.173 C 317.625 46.744, 315.150 47.783, 313.500 48.482 C 311.850 49.181, 304.425 52.116, 297 55.004 C 282.862 60.502, 278.470 62.274, 273.500 64.480 C 271.850 65.212, 267.125 67.170, 263 68.829 C 257.901 70.881, 255.412 72.432, 255.226 73.673 C 255.075 74.678, 259.913 83.534, 265.976 93.353 C 272.039 103.172, 277 111.780, 277 112.481 C 277 113.182, 276.438 114.211, 275.750 114.769 C 272.946 117.044, 258.533 124.035, 257.481 123.631 C 256.858 123.392, 254.429 120.019, 252.082 116.136 C 249.736 112.254, 246.961 108.805, 245.915 108.473 C 243.671 107.761, 232 114.567, 232 116.589 C 232 117.306, 238.138 127.930, 245.641 140.197 C 261.646 166.364, 262.505 167.933, 261.365 168.916 C 260.889 169.326, 253.325 172, 244.555 174.858 C 229.850 179.649, 228.527 179.918, 227.555 178.317 C 226.975 177.361, 224.664 173.187, 222.419 169.040 C 220.175 164.893, 216.744 158.575, 214.795 155 C 210.513 147.145, 206.072 138.977, 201.881 131.250 C 200.166 128.088, 196.984 122.233, 194.810 118.240 C 192.636 114.248, 191.002 110.318, 191.179 109.509 C 191.355 108.700, 195.738 104.992, 200.917 101.269 C 206.097 97.546, 210.778 93.779, 211.319 92.898 C 212.063 91.688, 211.402 89.938, 208.616 85.741 C 206.589 82.686, 204.205 79.909, 203.320 79.569 C 201.956 79.046, 187.932 87.406, 183.346 91.476 C 182.712 92.039, 179.024 94.525, 175.152 97 C 171.279 99.475, 167.844 102.245, 167.518 103.156 C 167.177 104.107, 168.508 107.723, 170.645 111.656 C 172.690 115.420, 176.325 122.100, 178.722 126.500 C 187.849 143.258, 187.745 142.982, 185.550 144.587 C 184.487 145.364, 182.016 146.029, 180.059 146.064 C 178.101 146.100, 173.800 146.707, 170.500 147.414 C 167.200 148.121, 163.925 148.489, 163.221 148.232 C 162.107 147.824, 160.932 145.597, 157.034 136.500 C 156.562 135.400, 154.633 130.675, 152.747 126 C 149.929 119.015, 148.892 117.438, 146.928 117.150 C 144.789 116.837, 129.860 120.978, 125.967 122.964 C 125.124 123.394, 122.889 124.085, 121 124.500 C 119.111 124.915, 116.876 125.587, 116.033 125.993 C 114.421 126.770, 108.861 128.765, 105.543 129.757 C 103.420 130.391, 107.629 124.675, 115.672 116 C 117.967 113.525, 120.813 110.375, 121.996 109 C 128.175 101.823, 144.813 85.791, 155.723 76.503 C 176.448 58.859, 220.256 33.084, 244 24.565 C 248.125 23.085, 252.850 21.311, 254.500 20.623 C 256.150 19.934, 261.550 18.136, 266.500 16.627 C 271.450 15.118, 277.585 13.235, 280.134 12.442 C 282.683 11.649, 285.523 11, 286.446 11 C 287.369 11, 290.234 10.366, 292.812 9.591 C 295.390 8.816, 300.650 7.700, 304.500 7.110 C 308.350 6.521, 314.425 5.522, 318 4.890 C 338.697 1.234, 390.303 1.234, 411 4.890 C 414.575 5.522, 420.650 6.531, 424.500 7.134 C 431.606 8.246, 439.456 10.007, 448.500 12.517 C 451.250 13.280, 456.200 14.635, 459.500 15.528 C 465.358 17.114, 466.307 17.439, 472.500 19.983 C 474.150 20.661, 477.975 22.018, 481 23 C 484.025 23.982, 487.850 25.348, 489.500 26.037 C 495.157 28.398, 526.499 44.052, 529.500 46.015 C 531.150 47.095, 533.175 48.288, 534 48.666 C 534.825 49.044, 535.725 49.634, 536 49.975 C 536.275 50.317, 538.750 51.890, 541.500 53.472 C 560.929 64.646, 592.336 91.524, 611.060 113 C 622.414 126.023, 642.030 152.503, 640.832 153.190 C 640.649 153.294, 632.625 153.632, 623 153.940 L 605.500 154.500 605.500 162.500 L 605.500 170.500 614.500 171 L 623.500 171.500 623.778 185.250 L 624.056 199 618.519 199 L 612.983 199 613.613 193.634 C 614.326 187.567, 613.929 187.059, 607.537 185.863 C 605.316 185.447, 602.327 184.818, 600.894 184.465 C 598.578 183.893, 598.117 184.251, 596.745 187.679 C 595.896 189.800, 594.895 194.228, 594.519 197.518 C 593.539 206.107, 593.266 206.704, 589.709 208.027 C 586.609 209.181, 585.327 209.520, 574.500 212.059 C 571.750 212.703, 568.952 213.672, 568.283 214.211 C 567.471 214.864, 565.639 214.689, 562.783 213.685 C 560.427 212.858, 555.800 211.427, 552.500 210.506 C 540.858 207.256, 539.500 206.510, 539.500 203.361 L 539.500 200.500 562 200 L 584.500 199.500 584.796 192.158 C 584.979 187.605, 584.647 184.280, 583.923 183.408 C 582.965 182.253, 577.211 182, 551.937 182 C 530.027 182, 520.915 182.328, 520.417 183.135 C 520.031 183.759, 519.803 187.584, 519.910 191.635 L 520.105 199 514.614 199 L 509.123 199 508.503 194.750 C 508.162 192.412, 508.022 186.225, 508.192 181 L 508.500 171.500 517.500 171 L 526.500 170.500 526.500 162.500 L 526.500 154.500 499.209 154.234 L 471.919 153.968 472.209 162.234 L 472.500 170.500 481.500 171 L 490.500 171.500 490.771 191.318 C 491.129 217.471, 490.160 216, 507.044 216 C 517.359 216, 520.164 216.306, 521.429 217.571 C 522.293 218.436, 523 219.468, 523 219.864 C 523 220.566, 527.976 222.282, 539.750 225.640 C 542.913 226.542, 546.400 227.641, 547.500 228.082 C 548.600 228.523, 551.075 229.187, 553 229.557 C 554.925 229.928, 557.064 230.685, 557.754 231.241 C 559.458 232.614, 571.008 232.630, 574.596 231.265 C 576.193 230.657, 580.200 229.427, 583.500 228.532 C 607.199 222.102, 608.170 221.763, 609.407 219.500 C 610.008 218.400, 610.950 217.169, 611.500 216.765 C 612.050 216.361, 618.661 216.024, 626.191 216.015 C 634.739 216.006, 640.128 215.602, 640.537 214.940 C 640.897 214.357, 641.486 204.345, 641.846 192.690 L 642.500 171.500 647.419 171.500 C 652.145 171.500, 652.421 171.658, 654.422 175.500 C 658.158 182.674, 668.220 204.285, 669.053 206.925 C 669.500 208.341, 671.282 213.325, 673.013 218 C 676.859 228.390, 679.292 236.296, 681.476 245.500 C 682.390 249.350, 683.528 253.850, 684.004 255.500 C 686.315 263.498, 687.269 267.973, 688.043 274.450 C 692.245 309.574, 693.375 324.332, 692.686 335.078 C 690.580 367.923, 690.179 371.463, 686.135 393 C 681.049 420.082, 672.316 445.857, 658.691 474 C 650.254 491.427, 633.727 518.199, 629.526 521.243 C 628.962 521.652, 615.900 521.877, 600.500 521.743 L 572.500 521.500 572.234 493.233 L 571.969 464.966 575.295 462.046 C 578.702 459.055, 585 447.487, 585 444.221 C 585 443.219, 585.427 441.973, 585.948 441.450 C 590.044 437.345, 592.057 393.283, 588.870 377.500 C 586.032 363.448, 581.096 351.369, 576.183 346.456 C 572.830 343.103, 566.812 340, 563.662 340 C 559.879 340, 554.377 342.688, 550.784 346.293 C 536.197 360.927, 531.425 407.073, 540.778 443.060 C 542.263 448.774, 546.859 457.215, 550.567 461.042 L 554 464.584 554 493.328 L 554 522.072 544.250 521.786 L 534.500 521.500 534.247 478.500 C 534.017 439.492, 533.837 435.384, 532.306 434.250 C 531.159 433.401, 527.230 433.066, 520.059 433.206 L 509.500 433.411 518.500 433.705 C 523.450 433.867, 528.513 434.233, 529.750 434.519 L 532 435.038 532 477.948 C 532 515.623, 532.192 521.049, 533.571 522.429 C 534.749 523.606, 537.235 524, 543.490 524 C 548.080 524, 552.548 523.727, 553.418 523.393 C 554.811 522.858, 555 519.262, 555 493.264 L 555 463.742 551.385 459.741 C 540.862 448.093, 535.171 418.495, 537.948 389.859 C 540.668 361.814, 547.892 345.996, 559.770 342.076 C 563.363 340.890, 564.118 340.997, 569.239 343.420 C 576.605 346.905, 580.151 352.129, 584.342 365.671 C 587.927 377.253, 589.395 388.809, 589.275 404.500 C 589.065 431.955, 583.628 452.276, 574.033 461.468 L 571 464.374 571 492.987 C 571 513.908, 571.323 521.923, 572.200 522.800 C 573.794 524.394, 625.827 524.506, 629.203 522.923 C 632.177 521.528, 636.232 515.997, 646.184 499.760 C 655.009 485.362, 670 455.145, 670 451.755 C 670 451.010, 670.388 449.972, 670.863 449.450 C 672.353 447.809, 679.067 427.994, 682.197 416 C 687.169 396.943, 687.449 395.556, 691.082 372 C 693.894 353.767, 694.712 324.539, 692.986 304 C 692.045 292.792, 691.570 289.132, 688.644 270.500 C 687.348 262.252, 681.207 236.947, 679.058 231 C 678.561 229.625, 676.723 224.450, 674.973 219.500 C 669.888 205.111, 665.563 194.932, 658.190 180 L 653.500 170.500 647.500 170.500 L 641.500 170.500 640.874 177.500 C 640.530 181.350, 640.193 191.363, 640.124 199.750 L 640 215 626.750 215.014 C 611.322 215.030, 609.179 215.439, 608.406 218.518 C 608.041 219.973, 606.869 220.983, 605.167 221.310 C 602.790 221.768, 595.251 223.800, 578 228.632 C 564.710 232.356, 567.767 232.607, 545.500 225.965 C 537.800 223.668, 529.933 221.410, 528.018 220.947 C 526.102 220.484, 524.375 219.624, 524.178 219.035 C 523.004 215.513, 520.902 215, 507.629 215 L 494.402 215 493.201 211.679 C 492.438 209.568, 492 201.944, 492 190.761 C 492 181.082, 491.727 172.452, 491.393 171.582 C 490.902 170.303, 489.080 170, 481.893 170 L 473 170 473 162.483 L 473 154.967 499.250 155.233 L 525.500 155.500 525.500 162.500 L 525.500 169.500 516.500 170 L 507.500 170.500 507.223 184.724 C 506.946 198.935, 506.948 198.949, 509.303 199.540 C 510.600 199.865, 513.649 199.989, 516.080 199.816 L 520.500 199.500 521 191.500 L 521.500 183.500 550.145 183.235 C 567.327 183.076, 579.833 183.366, 581.395 183.960 C 583.789 184.870, 583.999 185.417, 583.985 190.725 C 583.976 193.901, 583.618 197.054, 583.188 197.730 C 582.616 198.631, 576.385 199.033, 559.953 199.230 L 537.500 199.500 537.199 202.585 C 536.810 206.574, 537.801 207.294, 548 210.434 C 552.675 211.873, 558.633 213.758, 561.239 214.622 C 565.503 216.036, 566.505 216.041, 571.239 214.675 C 574.133 213.840, 579.200 212.420, 582.500 211.519 C 593.429 208.536, 595 207.516, 595 203.409 C 595 201.417, 595.749 196.684, 596.664 192.893 C 598.559 185.041, 598.887 184.886, 607.929 187.572 C 613.154 189.123, 613.212 189.183, 612.498 192.322 C 610.862 199.516, 610.850 199.500, 618 199.500 L 624.500 199.500 624.500 185 L 624.500 170.500 615.250 170.212 L 606 169.925 606 162.462 L 606 155 622.250 154.986 C 631.188 154.979, 639.520 154.699, 640.768 154.365 L 643.035 153.757 640.647 149.485 C 635.274 139.872, 611.278 110.250, 598.518 97.479 C 590.210 89.165, 573.233 74.237, 566 68.887 C 554.994 60.748, 544.712 53.491, 543 52.654 C 542.175 52.251, 540.600 51.377, 539.500 50.711 C 538.400 50.045, 533.670 47.172, 528.988 44.327 C 520.826 39.366, 491.658 24.872, 487.500 23.712 C 486.400 23.404, 481.675 21.736, 477 20.004 C 463.692 15.073, 459.762 13.750, 456 12.935 C 454.075 12.517, 446.893 10.757, 440.040 9.024 C 427.772 5.921, 424.373 5.317, 406.500 3.063 C 401.550 2.439, 394.998 1.495, 391.940 0.964 C 385.338 -0.181, 341.596 -0.152, 338 1 M 346 36.700 C 345.175 36.999, 343.150 37.817, 341.500 38.518 C 339.850 39.220, 334.900 41.214, 330.500 42.950 C 321.082 46.665, 319.332 47.373, 316 48.813 C 314.625 49.408, 309.900 51.307, 305.500 53.034 C 301.100 54.760, 296.600 56.563, 295.500 57.040 C 294.400 57.518, 288.325 59.974, 282 62.500 C 275.675 65.026, 269.600 67.481, 268.500 67.957 C 267.400 68.432, 264.364 69.649, 261.754 70.661 C 258.448 71.942, 257.006 73.066, 257.004 74.366 C 257.002 75.393, 259.925 80.937, 263.500 86.686 C 267.075 92.436, 270 97.301, 270 97.499 C 270 97.697, 271.736 100.478, 273.859 103.679 C 278.195 110.220, 279.291 112.970, 278.227 114.645 C 277.827 115.275, 273.064 118.103, 267.643 120.929 C 260.227 124.794, 257.460 125.797, 256.474 124.979 C 255.753 124.380, 253.297 120.802, 251.017 117.027 C 248.736 113.252, 246.314 109.951, 245.635 109.690 C 243.842 109.002, 234.068 115.218, 234.031 117.070 C 234.006 118.327, 252.822 150.305, 259.879 161 C 265.300 169.215, 265.193 169.737, 257.643 171.983 C 255.364 172.660, 251.925 173.792, 250 174.497 C 242.782 177.140, 230.205 181, 228.813 181 C 227.395 181, 226.458 179.567, 219.979 167.500 C 214.279 156.884, 209.845 148.720, 204.500 139 C 198.321 127.762, 192.179 116.490, 190.334 113 C 189.607 111.625, 189.010 109.955, 189.006 109.289 C 189.003 108.624, 193.162 105.171, 198.250 101.617 C 203.338 98.062, 208.364 94.524, 209.421 93.754 C 211.276 92.402, 211.212 92.159, 207.574 86.677 C 205.501 83.555, 203.157 81, 202.364 81 C 201.571 81, 195.877 84.442, 189.711 88.650 C 166.774 104.300, 167.597 103.404, 170.815 109.220 C 182.075 129.573, 189 142.885, 189 144.180 C 189 145.759, 187.665 146.080, 168.653 149.077 C 165.438 149.584, 162.412 149.755, 161.930 149.457 C 160.910 148.826, 159.879 146.572, 153.488 131 C 150.892 124.675, 148.384 119.086, 147.914 118.580 C 147.017 117.614, 146.802 117.670, 126.500 124.152 C 119.900 126.259, 112.250 128.700, 109.500 129.577 C 106.750 130.453, 103.600 131.548, 102.500 132.010 C 101.400 132.471, 99.375 133.063, 98 133.323 C 96.625 133.584, 93.925 134.365, 92 135.060 C 90.075 135.754, 85.575 137.302, 82 138.500 C 78.425 139.698, 73.925 141.246, 72 141.940 C 70.075 142.635, 67.375 143.416, 66 143.677 C 64.625 143.937, 62.600 144.529, 61.500 144.990 C 60.400 145.452, 57.025 146.602, 54 147.544 C 50.975 148.487, 46.925 149.830, 45 150.528 C 43.075 151.226, 37.450 153.020, 32.500 154.515 C 27.550 156.010, 21.925 157.797, 20 158.487 C 18.075 159.177, 14.025 160.537, 11 161.510 C 7.975 162.483, 5.082 163.657, 4.572 164.118 C 4.016 164.620, 4.706 167.069, 6.295 170.228 C 8.865 175.340, 18.277 194.958, 28.975 217.500 C 41.360 243.595, 44.260 249, 45.874 248.989 C 46.768 248.983, 49.750 248.275, 52.500 247.414 C 57.281 245.919, 64.051 243.905, 70.500 242.060 C 76.579 240.320, 110.793 229.949, 118.500 227.510 C 122.640 226.199, 134.098 222.733, 146.838 218.938 L 154.176 216.752 153.496 213.126 C 152.447 207.525, 150.258 203, 148.600 203 C 147.101 203, 139.180 204.991, 133.500 206.796 C 127.642 208.658, 94.885 218.574, 81 222.688 C 77.975 223.585, 72.257 225.378, 68.294 226.672 C 64.331 227.967, 59.129 229.295, 56.735 229.623 L 52.383 230.219 49.127 223.360 C 47.337 219.587, 45.226 215.306, 44.436 213.846 C 43.646 212.386, 43 210.511, 43 209.679 C 43 208.847, 42.663 208.017, 42.250 207.833 C 41.838 207.650, 40.760 205.925, 39.855 204 C 38.951 202.075, 36.312 196.450, 33.992 191.500 C 31.672 186.550, 28.812 180.575, 27.637 178.221 C 25.215 173.371, 25.398 173.092, 32.357 171.011 C 34.636 170.329, 37.400 169.421, 38.500 168.992 C 44.484 166.657, 49.758 165, 51.202 165 C 52.102 165, 54.112 164.363, 55.669 163.585 C 57.226 162.806, 62.550 160.961, 67.500 159.483 C 72.450 158.006, 78.075 156.196, 80 155.462 C 83.114 154.273, 111.002 145.244, 130.789 139.018 C 139.460 136.289, 139.012 135.970, 144.070 148.500 C 147.142 156.110, 149.175 161.064, 151.048 165.500 C 151.513 166.600, 152.872 169.863, 154.070 172.750 C 155.267 175.637, 156.611 178, 157.057 178 C 157.503 178, 160.629 176.803, 164.002 175.340 C 169.674 172.880, 170.088 172.486, 169.491 170.108 C 169.136 168.694, 168.768 167.098, 168.673 166.561 C 168.418 165.121, 176.248 163.236, 194.674 160.304 C 198.655 159.670, 198.662 159.680, 215.929 192.233 C 217.893 195.936, 220.071 199.188, 220.768 199.459 C 221.466 199.730, 231.366 196.882, 242.768 193.130 C 254.171 189.379, 268.225 184.820, 274 182.998 C 279.775 181.177, 285.244 179.053, 286.152 178.277 C 287.656 176.994, 286.878 175.363, 277.526 160.183 C 271.873 151.007, 266.953 142.540, 266.594 141.367 C 266.059 139.624, 266.631 138.868, 269.720 137.236 C 284.594 129.377, 287.334 128.089, 288.129 128.579 C 289.021 129.131, 297 140.786, 297 141.538 C 297 141.756, 299.321 145.589, 302.157 150.057 L 307.314 158.180 311.907 157.525 C 314.433 157.165, 318.750 156.248, 321.500 155.486 C 324.250 154.724, 329.425 153.393, 333 152.527 C 336.575 151.661, 341.075 150.549, 343 150.056 C 351.597 147.853, 359.250 145.923, 369 143.500 C 374.775 142.065, 381.975 140.265, 385 139.500 C 388.025 138.735, 395.225 136.940, 401 135.510 C 406.775 134.080, 413.750 132.314, 416.500 131.586 C 419.250 130.857, 424.988 129.437, 429.250 128.430 C 434.355 127.224, 437 126.122, 437 125.199 C 437 124.429, 434.445 119.232, 431.323 113.650 C 425.032 102.403, 423.816 100.211, 419.031 91.500 C 417.218 88.200, 415.404 85.050, 415 84.500 C 414.083 83.253, 408.222 72.692, 405.843 68 C 402.470 61.348, 402.809 61.451, 396.116 65.019 C 389.195 68.708, 388.733 70.022, 392.342 75.770 C 393.631 77.821, 396.179 82.200, 398.006 85.500 C 399.832 88.800, 402.214 93.075, 403.298 95 C 411.583 109.709, 414.017 114.512, 413.656 115.436 C 413.240 116.502, 409.577 117.594, 390 122.486 C 384.225 123.929, 377.025 125.747, 374 126.527 C 362.098 129.596, 351.299 132.234, 347.183 133.079 C 344.809 133.566, 342.476 134.206, 342 134.500 C 341.524 134.794, 339.191 135.434, 336.817 135.921 C 334.443 136.408, 328.695 137.806, 324.045 139.027 L 315.589 141.246 313.711 138.873 C 310.679 135.044, 279 82.649, 279 81.465 C 279 80.335, 279.963 79.884, 297 73.032 C 302.775 70.709, 308.400 68.426, 309.500 67.957 C 310.600 67.489, 315.100 65.688, 319.500 63.956 C 328.951 60.235, 345.917 53.407, 351.324 51.148 C 355.449 49.424, 355.514 49.030, 352.823 42 C 350.485 35.891, 349.771 35.336, 346 36.700 M 76.500 159.668 C 75.400 159.907, 73.600 160.482, 72.500 160.946 C 67.542 163.035, 61.265 165.003, 59.467 165.032 C 58.385 165.049, 56.626 165.724, 55.559 166.532 C 54.491 167.339, 52.380 168, 50.868 168 C 49.355 168, 47.864 168.411, 47.554 168.913 C 47.243 169.415, 45.194 170.129, 43 170.500 C 40.806 170.871, 38.757 171.585, 38.446 172.087 C 38.136 172.589, 36.549 173, 34.920 173 C 31.287 173, 28.833 177.027, 30.758 179.828 C 33.053 183.164, 38 193.697, 38 195.246 C 38 196.119, 38.368 196.983, 38.817 197.167 C 39.267 197.350, 41.109 200.650, 42.911 204.500 C 48.969 217.443, 51.714 222.501, 52.610 222.371 C 53.099 222.300, 54.446 219.600, 55.603 216.371 C 58.811 207.413, 58.961 207.024, 62.329 199 C 65.727 190.903, 76.341 169.688, 79.840 164 C 81.024 162.075, 81.994 160.162, 81.996 159.750 C 82 158.964, 79.877 158.932, 76.500 159.668 M 495.440 293.888 C 486.614 297.897, 479.917 311.328, 476.038 332.802 C 474.570 340.932, 474.563 374.507, 476.029 381.847 C 479.454 399.003, 483.737 409.726, 489.672 416 C 492.743 419.247, 492.983 419.987, 492.991 426.240 L 493 432.981 444.250 433.240 L 395.500 433.500 394.964 464.500 C 394.669 481.550, 394.331 495.613, 394.214 495.750 C 394.096 495.887, 384.807 496, 373.571 496 C 356.333 496, 352.897 496.245, 351.571 497.571 C 350.203 498.940, 350 503.651, 350 534.064 L 350 568.985 287.250 569.242 L 224.500 569.500 224.210 577.750 C 223.949 585.143, 224.105 585.992, 225.710 585.921 C 226.758 585.875, 226.982 585.633, 226.250 585.338 C 225.408 584.998, 225 582.416, 225 577.424 L 225 570.015 288.250 569.757 L 351.500 569.500 352 534 L 352.500 498.500 373.144 498.230 C 388.713 498.026, 394.056 497.637, 394.879 496.646 C 395.601 495.776, 396.060 485.037, 396.235 464.916 L 396.500 434.500 445 434 L 493.500 433.500 493.795 426.171 C 494.086 418.971, 494.027 418.772, 490.431 414.791 C 481.527 404.936, 476.102 384.024, 476.032 359.289 C 475.932 323.928, 483.946 299.729, 497.468 294.565 C 501.794 292.913, 502.316 292.909, 506.283 294.485 C 514.954 297.930, 518.222 302.700, 523.888 320.184 C 527.410 331.051, 529.233 365.563, 526.973 378.583 C 523.537 398.383, 519.775 408.517, 513.439 415.042 C 511.548 416.990, 510.036 419.465, 510.079 420.542 C 510.137 421.977, 510.308 422.100, 510.722 421 C 511.032 420.175, 513.024 417.595, 515.148 415.267 C 519.239 410.783, 522.901 403.436, 524.753 396 C 528.791 379.786, 529 377.886, 529 357.438 C 529 336.635, 528.440 331.824, 524.289 317 C 520.980 305.181, 515.446 297.079, 508.500 293.884 C 503.459 291.565, 500.553 291.566, 495.440 293.888 M 499.473 313.401 C 497.143 316.957, 493.986 326.106, 494.096 328.986 C 494.163 330.748, 494.651 330.005, 495.728 326.500 C 501.071 309.123, 502.865 308.900, 507.765 325 C 511.256 336.474, 512.486 363.725, 510.134 377.500 C 507.773 391.322, 504.256 402, 502.064 402 C 500.928 402, 497.024 393.974, 496.924 391.434 C 496.882 390.370, 496.241 387.925, 495.500 386 C 494.310 382.910, 494.146 382.793, 494.101 385 C 494.048 387.543, 496.991 397.246, 498.891 400.797 C 499.466 401.871, 500.817 402.980, 501.894 403.262 C 504.747 404.008, 507.481 397.306, 511.180 380.500 C 512.881 372.768, 512.823 341.311, 511.093 333.319 C 510.400 330.119, 508.972 324.685, 507.921 321.245 C 504.730 310.798, 502.522 308.748, 499.473 313.401 M 492.419 337.500 C 491.193 345.507, 491.449 375.721, 492.775 379.500 L 493.828 382.500 493.914 378.934 C 493.961 376.972, 493.497 372.697, 492.881 369.434 C 492.038 364.961, 492.070 360.053, 493.012 349.500 C 494.334 334.695, 493.972 327.364, 492.419 337.500 M 560.561 361.266 C 552.109 374.165, 549.940 416.951, 556.721 437 C 559.282 444.571, 560.919 447.755, 562.577 448.391 C 564.844 449.261, 564.800 449.288, 566.460 446.078 C 575.171 429.232, 576.587 390.833, 569.320 368.500 C 566.285 359.173, 563.461 356.841, 560.561 361.266 M 562.624 360.705 C 562.184 361.142, 561.148 363.075, 560.322 365 C 555.137 377.089, 553.101 396.532, 554.888 416.917 C 556.195 431.846, 560.165 446.216, 563.140 446.788 C 567.033 447.538, 573.012 421.922, 572.992 404.574 C 572.983 396.663, 570.480 375.851, 569.075 372 C 568.573 370.625, 567.902 368.375, 567.584 367 C 566.828 363.730, 563.644 359.690, 562.624 360.705 M 282.999 380.750 C 282.998 381.163, 287.160 381.500, 292.249 381.500 L 301.500 381.500 301.790 393.500 C 302.207 410.813, 302.662 410, 292.564 410 C 287.827 410, 283.945 409.553, 283.658 408.975 C 283.379 408.411, 283.265 408.524, 283.405 409.225 C 283.751 410.950, 299.625 411.556, 301.597 409.920 C 302.667 409.031, 303 405.721, 303 395.959 C 303 388.922, 302.727 382.452, 302.393 381.582 C 301.899 380.295, 300.036 380, 292.393 380 C 287.227 380, 282.999 380.337, 282.999 380.750 M 320.454 381.260 C 320.172 381.995, 320.067 388.875, 320.220 396.548 L 320.500 410.500 330 410.500 L 339.500 410.500 339.500 395.500 L 339.500 380.500 330.233 380.212 C 323.217 379.994, 320.842 380.249, 320.454 381.260 M 321.223 395.250 L 321.500 409.500 330 409.500 L 338.500 409.500 338.777 395.250 L 339.055 381 330 381 L 320.945 381 321.223 395.250 M 283.652 433.750 C 283.396 434.163, 287.307 434.500, 292.343 434.500 L 301.500 434.500 301.500 447 L 301.500 459.500 292.249 459.500 C 287.160 459.500, 282.998 459.837, 282.999 460.250 C 282.999 460.663, 287.227 461, 292.393 461 C 300.036 461, 301.899 460.705, 302.393 459.418 C 303.553 456.396, 303.060 435.460, 301.800 434.200 C 300.479 432.879, 284.440 432.482, 283.652 433.750 M 320.702 433.632 C 320.316 434.018, 320 440.350, 320 447.703 L 320 461.072 329.750 460.786 L 339.500 460.500 339.500 447 L 339.500 433.500 330.452 433.215 C 325.475 433.058, 321.087 433.246, 320.702 433.632 M 321.704 434.630 C 321.317 435.017, 321 440.883, 321 447.667 L 321 460 330.030 460 L 339.060 460 338.780 447.250 L 338.500 434.500 330.454 434.213 C 326.028 434.055, 322.091 434.242, 321.704 434.630 M 411.504 451.167 C 411.230 451.900, 410.892 466, 410.753 482.500 L 410.500 512.500 390.077 512.771 C 377.072 512.944, 369.172 513.443, 368.327 514.144 C 367.271 515.020, 367 522.349, 367 550.039 C 367 576.906, 366.715 584.962, 365.750 585.399 C 365.063 585.710, 365.400 585.854, 366.500 585.719 C 368.447 585.480, 368.513 584.536, 369 549.987 L 369.500 514.500 390.454 514.229 C 405.685 514.032, 411.621 513.623, 412.189 512.729 C 412.618 512.053, 412.976 497.887, 412.985 481.250 L 413 451 453.441 451 C 479.323 451, 494.104 451.360, 494.500 452 C 494.840 452.550, 498.215 453, 502 453 C 505.785 453, 509.160 452.550, 509.500 452 C 509.840 451.450, 511.216 451, 512.559 451 L 515 451 515 494.378 C 515 533.506, 515.162 537.890, 516.654 539.128 C 518 540.245, 527.030 540.518, 565.198 540.595 C 594.350 540.654, 612.460 541.060, 613.070 541.670 C 614.172 542.772, 590.117 567.744, 578.500 577.558 C 574.650 580.810, 571.275 583.739, 571 584.066 C 569.337 586.045, 545.532 602.523, 535 608.985 C 522.199 616.840, 497.047 629.585, 489 632.295 C 484.548 633.794, 481.470 635, 475.349 637.641 C 473.616 638.388, 471.697 639, 471.085 639 C 470.473 639, 469.191 639.390, 468.236 639.866 C 465.216 641.372, 459.641 643.186, 455.500 644.010 C 453.300 644.448, 446.092 646.180, 439.482 647.859 C 420.590 652.657, 387.697 656.679, 363.500 657.150 C 349.974 657.413, 349.855 657.433, 360 657.749 C 371.031 658.093, 399.632 656.558, 409 655.119 C 426.713 652.397, 429.825 651.871, 433 651.056 C 442.444 648.635, 449.833 646.759, 453 645.980 C 459.116 644.476, 467.383 641.978, 471 640.540 C 472.925 639.775, 477.875 637.959, 482 636.504 C 486.125 635.050, 491.300 633.031, 493.500 632.018 C 544.082 608.730, 575.337 586.242, 611.250 547.296 C 619.446 538.407, 622.562 539, 567.622 539 C 528.419 539, 519.034 538.746, 518.133 537.661 C 517.365 536.735, 516.941 523.061, 516.761 493.411 L 516.500 450.500 464.251 450.167 C 421.398 449.894, 411.912 450.073, 411.504 451.167 M 424.455 461.256 C 424.172 461.993, 424.067 468.875, 424.220 476.548 L 424.500 490.500 432.500 490.500 L 440.500 490.500 440.500 475.500 L 440.500 460.500 432.735 460.208 C 426.954 459.990, 424.838 460.258, 424.455 461.256 M 458.607 461.582 C 458.273 462.452, 458 468.922, 458 475.959 C 458 485.721, 458.333 489.031, 459.403 489.920 C 461.566 491.715, 477.208 490.933, 477.795 489 C 478.162 487.789, 477.994 487.741, 476.925 488.750 C 475.438 490.153, 462.293 490.473, 460.220 489.157 C 459.260 488.548, 459.010 484.989, 459.220 474.922 L 459.500 461.500 468.751 461.500 C 473.840 461.500, 478.002 461.163, 478.001 460.750 C 478.001 460.337, 473.773 460, 468.607 460 C 460.964 460, 459.101 460.295, 458.607 461.582 M 425.223 475.250 L 425.500 489.500 432.500 489.500 L 439.500 489.500 439.777 475.250 L 440.055 461 432.500 461 L 424.945 461 425.223 475.250 M 424 514.853 C 424 531.262, 423.953 531.144, 430.332 530.858 C 433.217 530.729, 433.142 530.662, 429.500 530.108 L 425.500 529.500 425.223 515.250 L 424.945 501 432.524 501 L 440.103 501 439.801 515.502 C 439.636 523.477, 439.850 530.002, 440.277 530.002 C 440.704 530.001, 440.929 523.362, 440.777 515.250 L 440.500 500.500 432.250 500.210 L 424 499.919 424 514.853 M 458.607 501.582 C 458.273 502.452, 458 508.720, 458 515.510 C 458 530.779, 458.150 531, 468.500 531 C 473.855 531, 476.285 530.572, 477.429 529.429 C 479.620 527.237, 479.403 526.325, 477.171 528.345 C 474.783 530.507, 461.833 530.708, 460.092 528.611 C 459.318 527.678, 459.031 522.989, 459.219 514.361 L 459.500 501.500 468.751 501.500 C 473.840 501.500, 478.002 501.163, 478.001 500.750 C 478.001 500.337, 473.773 500, 468.607 500 C 460.964 500, 459.101 500.295, 458.607 501.582" stroke="none" fill="#6d95b1" fill-rule="evenodd"/><path d="M 352 2.102 C 350.625 2.486, 344.856 2.845, 339.180 2.900 C 333.503 2.955, 325.178 3.652, 320.680 4.450 C 316.181 5.247, 309.125 6.413, 305 7.041 C 300.875 7.669, 295.390 8.816, 292.812 9.591 C 290.234 10.366, 287.369 11, 286.446 11 C 285.523 11, 282.683 11.649, 280.134 12.442 C 277.585 13.235, 271.450 15.118, 266.500 16.627 C 261.550 18.136, 256.150 19.934, 254.500 20.623 C 252.850 21.311, 248.125 23.085, 244 24.565 C 220.256 33.084, 176.448 58.859, 155.723 76.503 C 144.813 85.791, 128.175 101.823, 121.996 109 C 120.813 110.375, 117.967 113.525, 115.672 116 C 107.629 124.675, 103.420 130.391, 105.543 129.757 C 108.861 128.765, 114.421 126.770, 116.033 125.993 C 116.876 125.587, 119.111 124.915, 121 124.500 C 122.889 124.085, 125.124 123.394, 125.967 122.964 C 129.860 120.978, 144.789 116.837, 146.928 117.150 C 148.892 117.438, 149.929 119.015, 152.747 126 C 154.633 130.675, 156.562 135.400, 157.034 136.500 C 160.932 145.597, 162.107 147.824, 163.221 148.232 C 163.925 148.489, 167.200 148.121, 170.500 147.414 C 173.800 146.707, 178.101 146.100, 180.059 146.064 C 182.016 146.029, 184.487 145.364, 185.550 144.587 C 187.745 142.982, 187.849 143.258, 178.722 126.500 C 176.325 122.100, 172.690 115.420, 170.645 111.656 C 168.508 107.723, 167.177 104.107, 167.518 103.156 C 167.844 102.245, 171.279 99.475, 175.152 97 C 179.024 94.525, 182.712 92.039, 183.346 91.476 C 187.932 87.406, 201.956 79.046, 203.320 79.569 C 204.205 79.909, 206.589 82.686, 208.616 85.741 C 211.402 89.938, 212.063 91.688, 211.319 92.898 C 210.778 93.779, 206.097 97.546, 200.917 101.269 C 195.738 104.992, 191.355 108.700, 191.179 109.509 C 191.002 110.318, 192.636 114.248, 194.810 118.240 C 196.984 122.233, 200.166 128.088, 201.881 131.250 C 206.072 138.977, 210.513 147.145, 214.795 155 C 216.744 158.575, 220.175 164.893, 222.419 169.040 C 224.664 173.187, 226.975 177.361, 227.555 178.317 C 228.527 179.918, 229.850 179.649, 244.555 174.858 C 253.325 172, 260.889 169.326, 261.365 168.916 C 262.505 167.933, 261.646 166.364, 245.641 140.197 C 238.138 127.930, 232 117.306, 232 116.589 C 232 114.567, 243.671 107.761, 245.915 108.473 C 246.961 108.805, 249.736 112.254, 252.082 116.136 C 254.429 120.019, 256.858 123.392, 257.481 123.631 C 258.533 124.035, 272.946 117.044, 275.750 114.769 C 276.438 114.211, 277 113.182, 277 112.481 C 277 111.780, 272.039 103.172, 265.976 93.353 C 259.913 83.534, 255.075 74.678, 255.226 73.673 C 255.412 72.432, 257.901 70.881, 263 68.829 C 267.125 67.170, 271.850 65.212, 273.500 64.480 C 278.470 62.274, 282.862 60.502, 297 55.004 C 304.425 52.116, 311.850 49.167, 313.500 48.450 C 315.150 47.734, 318.300 46.409, 320.500 45.506 C 322.700 44.604, 325.400 43.488, 326.500 43.028 C 342.572 36.304, 348.915 34.030, 350.214 34.529 C 351.870 35.164, 356 45.302, 356 48.731 C 356 50.090, 354.929 51.176, 352.750 52.029 C 350.962 52.728, 348.150 53.846, 346.500 54.514 C 344.850 55.182, 341.475 56.521, 339 57.490 C 336.525 58.459, 333.150 59.823, 331.500 60.521 C 329.850 61.218, 327.375 62.256, 326 62.827 C 324.625 63.398, 321.925 64.520, 320 65.320 C 315.500 67.192, 296.700 74.715, 291.500 76.725 C 283.479 79.826, 281 81.116, 281 82.189 C 281 82.791, 282.800 86.134, 285 89.617 C 287.200 93.101, 289 96.155, 289 96.405 C 289 96.654, 290.800 99.569, 293 102.881 C 295.200 106.193, 297 109.118, 297 109.381 C 297 109.644, 298.731 112.478, 300.846 115.679 C 302.962 118.881, 305.934 123.750, 307.451 126.500 C 308.968 129.250, 310.707 132.110, 311.316 132.857 C 311.924 133.603, 312.916 135.178, 313.520 136.357 C 314.825 138.903, 319.267 138.969, 328 136.570 C 335.019 134.641, 349.745 130.994, 353 130.378 C 354.375 130.117, 357.750 129.270, 360.500 128.495 C 363.250 127.720, 368.425 126.380, 372 125.519 C 375.575 124.658, 380.075 123.549, 382 123.056 C 383.925 122.563, 388.425 121.419, 392 120.515 C 395.575 119.610, 399.850 118.492, 401.500 118.030 C 403.150 117.568, 406.188 116.902, 408.250 116.550 C 410.313 116.197, 412 115.404, 412 114.787 C 412 113.815, 404.150 99.007, 397.005 86.500 C 389.853 73.980, 388.020 70.112, 388.566 68.688 C 388.899 67.822, 390.899 66.212, 393.012 65.111 C 395.125 64.010, 397.788 62.525, 398.930 61.812 C 401.651 60.112, 403.775 61.448, 406.523 66.587 C 410.241 73.541, 415.245 82.473, 415.999 83.500 C 416.402 84.050, 417.844 86.525, 419.202 89 C 423.361 96.578, 428.224 105.320, 430.328 109 C 438.680 123.607, 440.055 128, 436.277 128 C 435.447 128, 432.683 128.654, 430.134 129.453 C 425.948 130.765, 418.650 132.681, 409 135 C 407.075 135.463, 402.800 136.540, 399.500 137.393 C 387.193 140.577, 376.378 143.240, 372.500 144.042 C 370.300 144.497, 366.475 145.398, 364 146.044 C 361.525 146.691, 357.025 147.866, 354 148.657 C 350.975 149.448, 346.925 150.488, 345 150.968 C 343.075 151.448, 338.800 152.540, 335.500 153.393 C 327.770 155.393, 313.150 159.055, 310.244 159.720 C 307.237 160.407, 305.768 159.023, 301.283 151.275 C 299.202 147.681, 296.733 143.561, 295.795 142.120 C 294.857 140.679, 293.362 138.078, 292.474 136.341 C 291.585 134.603, 290.009 132.413, 288.971 131.474 C 287.177 129.850, 286.723 129.954, 279.792 133.567 C 275.781 135.658, 271.491 137.849, 270.258 138.435 C 266.927 140.017, 267.319 141.485, 273.756 151.538 C 274.447 152.617, 275.315 154.175, 275.683 155 C 276.052 155.825, 276.630 156.725, 276.968 157 C 278.281 158.069, 289 176.273, 289 177.433 C 289 179.247, 286.277 180.376, 267 186.560 C 257.375 189.648, 248.022 192.810, 246.216 193.587 C 244.410 194.364, 241.912 195, 240.666 195 C 239.420 195, 237.973 195.379, 237.450 195.841 C 236.114 197.024, 223.760 201, 221.420 201 C 219.319 201, 218.290 199.643, 213.459 190.500 C 211.715 187.200, 209.020 182.250, 207.470 179.500 C 205.919 176.750, 203.519 172.250, 202.136 169.500 C 199.009 163.282, 197.148 161.006, 195.656 161.577 C 195.020 161.820, 191.575 162.438, 188 162.950 C 181.141 163.931, 170.692 165.988, 170.222 166.450 C 170.069 166.600, 170.393 167.905, 170.943 169.350 C 171.772 171.530, 171.575 172.318, 169.782 173.988 C 168.595 175.095, 166.920 176.014, 166.061 176.032 C 165.203 176.049, 163.626 176.724, 162.559 177.532 C 161.491 178.339, 159.403 179, 157.919 179 C 155.436 179, 154.882 178.178, 151.008 168.750 C 148.692 163.113, 146.201 157.150, 145.472 155.500 C 144.744 153.850, 143.409 150.700, 142.506 148.500 C 139.758 141.804, 138.593 139.781, 137.169 139.235 C 135.943 138.764, 124.150 142.100, 115 145.505 C 113.075 146.221, 105.200 148.825, 97.500 151.292 C 84.858 155.341, 83.531 155.984, 83.819 157.921 C 83.998 159.129, 82.437 162.784, 80.247 166.283 C 75.313 174.170, 62.085 201.356, 59.950 208 C 57.815 214.640, 53.876 224.444, 52.842 225.690 C 52.072 226.619, 52.019 227.419, 52.683 228.083 C 53.725 229.125, 56.542 228.617, 67 225.500 C 73.186 223.657, 75.342 223.029, 86 219.970 C 90.125 218.787, 94.978 217.184, 96.784 216.409 C 98.590 215.634, 100.901 215, 101.920 215 C 102.938 215, 105.060 214.328, 106.636 213.506 C 108.211 212.685, 110.519 212.010, 111.764 212.006 C 113.009 212.003, 114.809 211.576, 115.764 211.059 C 116.719 210.541, 120.200 209.354, 123.500 208.421 C 126.800 207.488, 132.719 205.650, 136.653 204.336 C 148.099 200.512, 152.937 201.043, 152.985 206.128 C 152.993 207.023, 153.671 209.361, 154.490 211.322 C 155.310 213.283, 155.724 215.555, 155.411 216.370 C 155.088 217.212, 150.447 219.183, 144.671 220.931 C 139.077 222.623, 133.150 224.502, 131.500 225.106 C 129.850 225.709, 127.375 226.416, 126 226.677 C 124.625 226.937, 122.600 227.532, 121.500 227.999 C 120.400 228.465, 116.800 229.597, 113.500 230.514 C 110.200 231.431, 105.700 232.760, 103.500 233.469 C 98.188 235.179, 83.971 239.435, 76.500 241.550 C 73.200 242.485, 69.600 243.580, 68.500 243.985 C 67.400 244.389, 63.800 245.513, 60.500 246.482 C 57.200 247.451, 52.803 248.864, 50.730 249.622 C 45.585 251.502, 43.017 251.380, 42.921 249.250 C 42.870 248.112, 42.659 247.957, 42.318 248.808 C 42.030 249.527, 42.534 250.932, 43.437 251.930 C 44.845 253.486, 44.933 254.654, 44.051 260.122 C 43.486 263.630, 42.568 268.072, 42.012 269.993 C 41.455 271.915, 41 275.373, 41 277.678 C 41 279.984, 40.536 283.089, 39.970 284.579 C 38.900 287.393, 36.624 317.642, 36.628 329 C 36.631 338.963, 38.682 367.770, 39.868 374.500 C 42.863 391.507, 45.187 403.057, 46.607 408 C 47.476 411.025, 48.567 415.300, 49.031 417.500 C 49.846 421.357, 54.252 435.388, 55.940 439.500 C 56.391 440.600, 57.453 443.300, 58.300 445.500 C 65.544 464.328, 74.910 483.550, 83.637 497.500 C 86.390 501.900, 88.938 506.175, 89.299 507 C 89.661 507.825, 92.360 511.875, 95.298 516 L 100.640 523.500 117.070 523.500 L 133.500 523.500 133.761 481.777 L 134.022 440.054 144.261 431.941 C 149.892 427.479, 156.075 422.540, 158 420.965 C 185.169 398.737, 211.814 378.049, 213 378.260 C 214.304 378.492, 214.534 384.698, 214.760 425.764 L 215.020 473 231.510 473 L 248 473 248 409.934 C 248 368.374, 248.353 346.209, 249.035 344.934 C 250.031 343.073, 251.541 342.999, 288.785 342.985 C 310.078 342.976, 328.056 342.616, 328.735 342.185 C 329.662 341.596, 330.037 333.682, 330.235 310.450 L 330.500 279.500 346.250 279.225 L 362 278.949 362 253.014 L 362 227.078 353.250 226.789 L 344.500 226.500 344.205 218.587 C 343.994 212.932, 344.280 210.439, 345.205 209.852 C 345.917 209.400, 352.441 209.024, 359.702 209.015 L 372.905 209 373.202 202.750 L 373.500 196.500 388.865 196.223 C 399.346 196.035, 404.671 196.312, 405.615 197.096 C 407.379 198.559, 407.526 211.074, 405.800 212.800 C 405.100 213.500, 401.743 214, 397.743 214 L 390.885 214 391.193 218.250 L 391.500 222.500 398.472 222.801 C 402.490 222.974, 405.768 223.610, 406.207 224.301 C 407.118 225.733, 407.255 236.171, 406.393 238.418 C 405.883 239.747, 403.727 240, 392.893 240 L 380 240 380 259.500 L 380 279 398.508 279 L 417.015 279 416.758 340.750 L 416.500 402.500 408.500 402.500 L 400.500 402.500 400 349.500 L 399.500 296.500 373.750 296.233 L 348 295.966 348 327.361 C 348 352.359, 347.727 358.981, 346.662 359.866 C 345.744 360.627, 333.104 361.058, 306.412 361.238 L 267.500 361.500 267.243 425.134 C 267.010 482.573, 266.826 488.899, 265.353 490.122 C 264.059 491.196, 257.060 491.493, 231.610 491.557 C 212.954 491.604, 198.976 491.243, 198.250 490.696 C 197.289 489.972, 197 481.011, 197 451.878 C 197 431.045, 196.633 414, 196.186 414 C 195.738 414, 192.250 416.599, 188.436 419.777 C 184.621 422.954, 179.475 427.104, 177 429.001 C 174.525 430.897, 172.275 432.695, 172 432.996 C 171.629 433.403, 154.161 447.343, 152.775 448.339 C 152.652 448.427, 152.314 469.200, 152.025 494.500 L 151.500 540.500 134.246 541 C 124.757 541.275, 116.959 541.866, 116.918 542.314 C 116.715 544.527, 134.550 563.234, 148.600 575.546 C 160.059 585.587, 179.857 600.218, 192.258 607.810 C 225.287 628.028, 253.153 639.120, 298.500 650.099 C 309.627 652.792, 338.718 655.956, 358 656.570 C 382.607 657.353, 416.272 653.753, 439.482 647.859 C 446.092 646.180, 453.300 644.448, 455.500 644.010 C 459.641 643.186, 465.216 641.372, 468.236 639.866 C 469.191 639.390, 470.473 639, 471.085 639 C 471.697 639, 473.616 638.388, 475.349 637.641 C 481.470 635, 484.548 633.794, 489 632.295 C 497.047 629.585, 522.199 616.840, 535 608.985 C 545.532 602.523, 569.337 586.045, 571 584.066 C 571.275 583.739, 574.650 580.810, 578.500 577.558 C 590.117 567.744, 614.172 542.772, 613.070 541.670 C 612.460 541.060, 594.350 540.654, 565.198 540.595 C 527.030 540.518, 518 540.245, 516.654 539.128 C 515.162 537.890, 515 533.506, 515 494.378 L 515 451 512.559 451 C 511.216 451, 509.840 451.450, 509.500 452 C 508.694 453.304, 495.306 453.304, 494.500 452 C 494.104 451.360, 479.323 451, 453.441 451 L 413 451 412.985 481.250 C 412.976 497.887, 412.618 512.053, 412.189 512.729 C 411.621 513.623, 405.685 514.032, 390.454 514.229 L 369.500 514.500 369 550 L 368.500 585.500 296.209 585.757 L 223.919 586.013 224.209 577.757 L 224.500 569.500 287.250 569.242 L 350 568.985 350 534.064 C 350 503.651, 350.203 498.940, 351.571 497.571 C 352.897 496.245, 356.333 496, 373.571 496 C 384.807 496, 394.096 495.887, 394.214 495.750 C 394.331 495.613, 394.669 481.550, 394.964 464.500 L 395.500 433.500 444.250 433.240 L 493 432.981 492.991 426.240 C 492.983 419.987, 492.743 419.247, 489.672 416 C 483.737 409.726, 479.454 399.003, 476.029 381.847 C 474.563 374.507, 474.570 340.932, 476.038 332.802 C 479.007 316.367, 483.708 304.488, 489.750 298.152 C 501.913 285.398, 517.880 294.111, 524.289 317 C 528.440 331.824, 529 336.635, 529 357.438 C 529 377.886, 528.791 379.786, 524.753 396 C 522.852 403.637, 519.199 410.829, 514.797 415.604 C 510.922 419.808, 510.551 420.690, 510.175 426.588 L 509.767 433 520.192 433 C 526.966 433, 531.209 433.438, 532.306 434.250 C 533.837 435.384, 534.017 439.492, 534.247 478.500 L 534.500 521.500 544.250 521.786 L 554 522.072 554 493.328 L 554 464.584 550.567 461.042 C 546.859 457.215, 542.263 448.774, 540.778 443.060 C 533.106 413.540, 534.755 375.693, 544.592 355.544 C 549.201 346.103, 556.688 340, 563.662 340 C 566.812 340, 572.830 343.103, 576.183 346.456 C 581.096 351.369, 586.032 363.448, 588.870 377.500 C 592.057 393.283, 590.044 437.345, 585.948 441.450 C 585.427 441.973, 585 443.219, 585 444.221 C 585 447.487, 578.702 459.055, 575.295 462.046 L 571.969 464.966 572.234 493.233 L 572.500 521.500 600.500 521.743 C 615.900 521.877, 628.962 521.652, 629.526 521.243 C 633.727 518.199, 650.254 491.427, 658.691 474 C 672.316 445.857, 681.049 420.082, 686.135 393 C 690.179 371.463, 690.580 367.923, 692.686 335.078 C 693.375 324.332, 692.245 309.574, 688.043 274.450 C 687.269 267.973, 686.315 263.498, 684.004 255.500 C 683.528 253.850, 682.390 249.350, 681.476 245.500 C 679.292 236.296, 676.859 228.390, 673.013 218 C 671.282 213.325, 669.500 208.341, 669.053 206.925 C 668.220 204.285, 658.158 182.674, 654.422 175.500 C 652.421 171.658, 652.145 171.500, 647.419 171.500 L 642.500 171.500 641.846 192.690 C 641.486 204.345, 640.897 214.357, 640.537 214.940 C 640.128 215.602, 634.739 216.006, 626.191 216.015 C 618.661 216.024, 612.050 216.361, 611.500 216.765 C 610.950 217.169, 610.008 218.400, 609.407 219.500 C 608.170 221.763, 607.199 222.102, 583.500 228.532 C 580.200 229.427, 576.193 230.657, 574.596 231.265 C 571.008 232.630, 559.458 232.614, 557.754 231.241 C 557.064 230.685, 554.925 229.928, 553 229.557 C 551.075 229.187, 548.600 228.523, 547.500 228.082 C 546.400 227.641, 542.913 226.542, 539.750 225.640 C 527.976 222.282, 523 220.566, 523 219.864 C 523 219.468, 522.293 218.436, 521.429 217.571 C 520.164 216.306, 517.359 216, 507.044 216 C 490.160 216, 491.129 217.471, 490.771 191.318 L 490.500 171.500 481.500 171 L 472.500 170.500 472.209 162.234 L 471.919 153.968 499.209 154.234 L 526.500 154.500 526.500 162.500 L 526.500 170.500 517.500 171 L 508.500 171.500 508.192 181 C 508.022 186.225, 508.162 192.412, 508.503 194.750 L 509.123 199 514.614 199 L 520.105 199 519.910 191.635 C 519.803 187.584, 520.031 183.759, 520.417 183.135 C 520.915 182.328, 530.027 182, 551.937 182 C 577.211 182, 582.965 182.253, 583.923 183.408 C 584.647 184.280, 584.979 187.605, 584.796 192.158 L 584.500 199.500 562 200 L 539.500 200.500 539.500 203.361 C 539.500 206.510, 540.858 207.256, 552.500 210.506 C 555.800 211.427, 560.427 212.858, 562.783 213.685 C 565.639 214.689, 567.471 214.864, 568.283 214.211 C 568.952 213.672, 571.750 212.703, 574.500 212.059 C 585.327 209.520, 586.609 209.181, 589.709 208.027 C 593.266 206.704, 593.539 206.107, 594.519 197.518 C 594.895 194.228, 595.896 189.800, 596.745 187.679 C 598.117 184.251, 598.578 183.893, 600.894 184.465 C 602.327 184.818, 605.316 185.447, 607.537 185.863 C 613.929 187.059, 614.326 187.567, 613.613 193.634 L 612.983 199 618.519 199 L 624.056 199 623.778 185.250 L 623.500 171.500 614.500 171 L 605.500 170.500 605.500 162.500 L 605.500 154.500 623 153.940 C 632.625 153.632, 640.649 153.294, 640.832 153.190 C 642.030 152.503, 622.414 126.023, 611.060 113 C 592.336 91.524, 560.929 64.646, 541.500 53.472 C 538.750 51.890, 536.275 50.317, 536 49.975 C 535.725 49.634, 534.825 49.044, 534 48.666 C 533.175 48.288, 531.150 47.095, 529.500 46.015 C 526.499 44.052, 495.157 28.398, 489.500 26.037 C 487.850 25.348, 484.025 23.982, 481 23 C 477.975 22.018, 474.150 20.661, 472.500 19.983 C 466.307 17.439, 465.358 17.114, 459.500 15.528 C 456.200 14.635, 451.250 13.280, 448.500 12.517 C 439.456 10.007, 431.606 8.246, 424.500 7.134 C 420.650 6.531, 414.575 5.522, 411 4.890 C 399.270 2.818, 356.646 0.804, 352 2.102 M 498.873 317.254 C 491.717 335.932, 490.495 367.844, 496.125 389 C 497.689 394.879, 500.942 402, 502.064 402 C 504.256 402, 507.773 391.322, 510.134 377.500 C 512.486 363.725, 511.256 336.474, 507.765 325 C 505.312 316.942, 503.421 313.007, 502 313.007 C 501.158 313.007, 499.787 314.869, 498.873 317.254 M 562.624 360.705 C 562.184 361.142, 561.148 363.075, 560.322 365 C 555.137 377.089, 553.101 396.532, 554.888 416.917 C 556.195 431.846, 560.165 446.216, 563.140 446.788 C 567.033 447.538, 573.012 421.922, 572.992 404.574 C 572.983 396.663, 570.480 375.851, 569.075 372 C 568.573 370.625, 567.902 368.375, 567.584 367 C 566.828 363.730, 563.644 359.690, 562.624 360.705 M 283.224 395.250 L 283.500 410.500 291.847 410.792 C 297.141 410.977, 300.707 410.658, 301.597 409.920 C 302.667 409.031, 303 405.721, 303 395.959 C 303 388.922, 302.727 382.452, 302.393 381.582 C 301.899 380.294, 300.033 380, 292.367 380 L 282.948 380 283.224 395.250 M 320.454 381.260 C 320.172 381.995, 320.067 388.875, 320.220 396.548 L 320.500 410.500 330 410.500 L 339.500 410.500 339.500 395.500 L 339.500 380.500 330.233 380.212 C 323.217 379.994, 320.842 380.249, 320.454 381.260 M 283.667 433.667 C 283.300 434.033, 283 440.333, 283 447.667 L 283 461 292.393 461 C 300.036 461, 301.899 460.705, 302.393 459.418 C 303.553 456.396, 303.060 435.460, 301.800 434.200 C 300.528 432.928, 284.866 432.467, 283.667 433.667 M 320.702 433.632 C 320.316 434.018, 320 440.350, 320 447.703 L 320 461.072 329.750 460.786 L 339.500 460.500 339.500 447 L 339.500 433.500 330.452 433.215 C 325.475 433.058, 321.087 433.246, 320.702 433.632 M 424.455 461.256 C 424.172 461.993, 424.067 468.875, 424.220 476.548 L 424.500 490.500 432.500 490.500 L 440.500 490.500 440.500 475.500 L 440.500 460.500 432.735 460.208 C 426.954 459.990, 424.838 460.258, 424.455 461.256 M 458.607 461.582 C 458.273 462.452, 458 468.922, 458 475.959 C 458 485.721, 458.333 489.031, 459.403 489.920 C 460.293 490.658, 463.859 490.977, 469.153 490.792 L 477.500 490.500 477.776 475.250 L 478.052 460 468.633 460 C 460.967 460, 459.101 460.294, 458.607 461.582 M 424 514.892 C 424 528.742, 424.143 529.911, 425.906 530.470 C 428.013 531.139, 433.979 531.063, 438.276 530.314 L 441.052 529.830 440.776 515.165 L 440.500 500.500 432.250 500.210 L 424 499.919 424 514.892 M 458.607 501.582 C 458.273 502.452, 458 508.720, 458 515.510 C 458 530.779, 458.150 531, 468.500 531 C 476.306 531, 479.138 529.657, 478.490 526.265 C 478.305 525.294, 478.119 518.987, 478.077 512.250 L 478 500 468.607 500 C 460.964 500, 459.101 500.295, 458.607 501.582" stroke="none" fill="#044c7c" fill-rule="evenodd"/></svg>